P3
10 10
200
100 100 100	100 100 100	100 100 100	100 100 100	100 100 100	100 100 100	100 100 100	100 100 100	100 100 100	100 100 100	
100 100 100	100 100 100	100 100 100	100 100 100	100 100 100	100 100 100	100 100 100	100 100 100	100 100 100	100 100 100	
100 100 100	100 100 100	100 100 100	100 100 100	100 100 100	100 100 100	100 100 100	100 100 100	100 100 100	100 100 100	
100 100 100	100 100 100	100 100 100	100 100 100	100 100 100	100 100 100	100 100 100	100 100 100	100 100 100	100 100 100	
200 0 0	200 0 0	200 0 0	200 0 0	200 0 0	200 0 0	200 0 0	200 0 0	200 0 0	200 0 0	
100 100 100	100 100 100	200 0 0	100 100 100	200 0 0	100 100 100	200 0 0	100 100 100	200 0 0	100 100 100	
100 100 100	200 0 0	100 100 100	200 0 0	100 100 100	200 0 0	100 100 100	200 0 0	100 100 100	200 0 0	
100 100 100	100 100 100	100 100 100	100 100 100	100 100 100	100 100 100	100 100 100	100 100 100	100 100 100	100 100 100	
100 100 100	100 100 100	100 100 100	100 100 100	100 100 100	100 100 100	100 100 100	100 100 100	100 100 100	100 100 100	
100 100 100	100 100 100	100 100 100	100 100 100	100 100 100	100 100 100	100 100 100	100 100 100	100 100 100	100 100 100	
